# xmcd CD database file
#
# Track frame offsets:
#	180
#	17475
#	40919
#	60533
#	78108
#	93881
#	110499
#	129572
#	147941
#	164495
#
# Disc length: 2502 seconds
#
# Revision: 0
# Processed by: cddbd v1.5.1PL2 Copyright (c) Steve Scherf et al.
# Submitted via: CDex 1.51
#
DISCID=7809c40a
DTITLE=Eons - caméléon de fantaisie
DYEAR=1900
DGENRE=Québécois
TTITLE0=caméléon de fantaisie
TTITLE1=parle-moi
TTITLE2=veuve noire
TTITLE3=vivre la mort
TTITLE4=sortir du remous
TTITLE5=pourvu que le message passe
TTITLE6=douce musique
TTITLE7=phobie
TTITLE8=rocker sale
TTITLE9=ascension
EXTD=
EXTT0=
EXTT1=
EXTT2=
EXTT3=
EXTT4=
EXTT5=
EXTT6=
EXTT7=
EXTT8=
EXTT9=
PLAYORDER=
